<svg width="8" height="8" viewBox="0 0 8 8" fill="none" xmlns="http://www.w3.org/2000/svg">
<path d="M3.70238 0.270425C3.73698 -0.0901418 4.26302 -0.0901415 4.29761 0.270425C4.32711 0.577782 4.74643 0.644196 4.86945 0.360996C5.01378 0.0287675 5.51407 0.191322 5.43555 0.544932C5.36862 0.846359 5.74689 1.0391 5.95141 0.807777C6.19134 0.536408 6.61691 0.845604 6.43297 1.15764C6.27616 1.42364 6.57636 1.72384 6.84236 1.56704C7.1544 1.38309 7.46359 1.80866 7.19222 2.04859C6.9609 2.25311 7.15364 2.63138 7.45507 2.56445C7.80868 2.48593 7.97123 2.98622 7.639 3.13055C7.3558 3.25357 7.42222 3.67289 7.72958 3.70238C8.09014 3.73698 8.09014 4.26302 7.72958 4.29761C7.42222 4.32711 7.3558 4.74643 7.639 4.86945C7.97123 5.01378 7.80868 5.51407 7.45507 5.43555C7.15364 5.36862 6.9609 5.74689 7.19222 5.95141C7.46359 6.19134 7.1544 6.61691 6.84236 6.43297C6.57636 6.27616 6.27616 6.57637 6.43297 6.84236C6.61691 7.1544 6.19134 7.46359 5.95141 7.19222C5.74689 6.9609 5.36862 7.15364 5.43555 7.45507C5.51407 7.80868 5.01378 7.97123 4.86945 7.639C4.74643 7.3558 4.32711 7.42222 4.29761 7.72958C4.26302 8.09014 3.73698 8.09014 3.70238 7.72958C3.67289 7.42222 3.25357 7.3558 3.13055 7.639C2.98622 7.97123 2.48593 7.80868 2.56445 7.45507C2.63138 7.15364 2.25311 6.9609 2.04859 7.19222C1.80866 7.46359 1.38309 7.1544 1.56704 6.84236C1.72384 6.57636 1.42364 6.27616 1.15764 6.43297C0.845604 6.61691 0.536408 6.19134 0.807777 5.95141C1.0391 5.74689 0.846358 5.36862 0.544932 5.43555C0.191321 5.51407 0.0287675 5.01378 0.360996 4.86945C0.644196 4.74643 0.577781 4.32711 0.270425 4.29761C-0.0901418 4.26302 -0.0901415 3.73698 0.270425 3.70238C0.577782 3.67289 0.644196 3.25357 0.360995 3.13055C0.0287674 2.98622 0.191321 2.48593 0.544932 2.56445C0.846358 2.63138 1.0391 2.2531 0.807777 2.04859C0.536408 1.80866 0.845604 1.38309 1.15764 1.56704C1.42364 1.72384 1.72384 1.42364 1.56704 1.15764C1.38309 0.845604 1.80866 0.536408 2.04859 0.807777C2.25311 1.0391 2.63138 0.846358 2.56445 0.544931C2.48593 0.191321 2.98622 0.0287675 3.13055 0.360996C3.25357 0.644196 3.67289 0.577781 3.70238 0.270425Z" fill="#DB3535"/>
<path d="M2 2L4 4M6 6L4 4M4 4L6 2L2 6" stroke="white"/>
</svg>
