<svg width="6" height="141" viewBox="0 0 6 141" fill="none" xmlns="http://www.w3.org/2000/svg">
<circle cx="3" cy="42" r="3" fill="#3DBAF1"/>
<circle cx="3" cy="51" r="3" fill="#3DBAF1"/>
<path d="M3 3C4.65685 3 6 1.65685 6 0H0C0 1.65685 1.34315 3 3 3Z" fill="#3DBAF1"/>
<circle cx="3" cy="9" r="3" fill="#3DBAF1"/>
<circle cx="3" cy="60" r="3" fill="#3DBAF1"/>
<circle cx="3" cy="69" r="3" fill="#3DBAF1"/>
<circle cx="3" cy="78" r="3" fill="#3DBAF1"/>
<circle cx="3" cy="87" r="3" fill="#3DBAF1"/>
<circle cx="3" cy="96" r="3" fill="#3DBAF1"/>
<circle cx="3" cy="105" r="3" fill="#3DBAF1"/>
<circle cx="3" cy="114" r="3" fill="#3DBAF1"/>
<circle cx="3" cy="123" r="3" fill="#3DBAF1"/>
<circle cx="3" cy="132" r="3" fill="#3DBAF1"/>
<path d="M3 138C1.34315 138 0 139.343 0 141H6C6 139.343 4.65685 138 3 138Z" fill="#3DBAF1"/>
</svg>
